<svg width="40" height="40" viewBox="0 0 40 40" fill="none" xmlns="http://www.w3.org/2000/svg">
<path fill-rule="evenodd" clip-rule="evenodd" d="M23.0666 5.17035C21.6203 5.02522 20.145 5.10032 18.6933 5.40973C17.2705 5.71298 15.8703 6.2413 14.5424 7.00797C7.73625 10.9375 5.40428 19.6405 9.33383 26.4467C13.2634 33.2529 21.9664 35.5849 28.7726 31.6553C30.1005 30.8886 31.2581 29.9403 32.2321 28.8597C33.2259 27.7572 34.0286 26.5171 34.6261 25.192C33.2617 25.0551 31.9231 24.7222 30.6545 24.2051C27.8309 23.0542 25.3541 20.9909 23.7115 18.1458C22.0688 15.3007 21.5203 12.1241 21.9355 9.10324C22.122 7.7461 22.5029 6.42042 23.0666 5.17035ZM17.8429 9.83743C17.4017 10.0156 16.9672 10.2268 16.5424 10.4721C11.6494 13.2971 9.97295 19.5537 12.7979 24.4467C15.6229 29.3397 21.8796 31.0162 26.7726 28.1912C27.1973 27.946 27.5975 27.6753 27.9724 27.3823C24.8457 25.8438 22.122 23.3927 20.2474 20.1458C18.3728 16.8989 17.6119 13.3145 17.8429 9.83743Z" fill="white"/>
</svg>
