<svg width="40" height="40" viewBox="0 0 40 40" fill="none" xmlns="http://www.w3.org/2000/svg">
<path fill-rule="evenodd" clip-rule="evenodd" d="M20 28C24.4183 28 28 24.4183 28 20C28 15.5817 24.4183 12 20 12C15.5817 12 12 15.5817 12 20C12 24.4183 15.5817 28 20 28ZM20 32C26.6274 32 32 26.6274 32 20C32 13.3726 26.6274 8 20 8C13.3726 8 8 13.3726 8 20C8 26.6274 13.3726 32 20 32Z" fill="white"/>
<path fill-rule="evenodd" clip-rule="evenodd" d="M20 0C21.1046 0 22 0.89543 22 2V4C22 5.10457 21.1046 6 20 6C18.8954 6 18 5.10457 18 4V2C18 0.89543 18.8954 0 20 0Z" fill="white"/>
<path fill-rule="evenodd" clip-rule="evenodd" d="M37.3203 9.99963C37.8726 10.9562 37.5448 12.1794 36.5883 12.7317L34.8562 13.7317C33.8996 14.284 32.6764 13.9562 32.1242 12.9996C31.5719 12.043 31.8996 10.8199 32.8562 10.2676L34.5883 9.26758C35.5448 8.71529 36.768 9.04304 37.3203 9.99963Z" fill="white"/>
<path fill-rule="evenodd" clip-rule="evenodd" d="M2.67969 10.0004C3.23197 9.04379 4.45515 8.71604 5.41174 9.26832L7.14379 10.2683C8.10037 10.8206 8.42812 12.0438 7.87584 13.0004C7.32356 13.957 6.10037 14.2847 5.14379 13.7324L3.41174 12.7324C2.45515 12.1801 2.1274 10.957 2.67969 10.0004Z" fill="white"/>
<path fill-rule="evenodd" clip-rule="evenodd" d="M20 34C21.1046 34 22 34.8954 22 36V38C22 39.1046 21.1046 40 20 40C18.8954 40 18 39.1046 18 38V36C18 34.8954 18.8954 34 20 34Z" fill="white"/>
<path fill-rule="evenodd" clip-rule="evenodd" d="M7.875 26.9996C8.42728 27.9562 8.09953 29.1794 7.14295 29.7317L5.4109 30.7317C4.45431 31.284 3.23113 30.9562 2.67885 29.9996C2.12656 29.043 2.45431 27.8199 3.4109 27.2676L5.14295 26.2676C6.09953 25.7153 7.32272 26.043 7.875 26.9996Z" fill="white"/>
<path fill-rule="evenodd" clip-rule="evenodd" d="M32.125 27.0004C32.6773 26.0438 33.9005 25.716 34.8571 26.2683L36.5891 27.2683C37.5457 27.8206 37.8734 29.0438 37.3212 30.0004C36.7689 30.957 35.5457 31.2847 34.5891 30.7324L32.8571 29.7324C31.9005 29.1801 31.5727 27.957 32.125 27.0004Z" fill="white"/>
</svg>
